<?xml version="1.0" standalone="no"?>
<!DOCTYPE svg PUBLIC "-//W3C//DTD SVG 20010904//EN"
 "http://www.w3.org/TR/2001/REC-SVG-20010904/DTD/svg10.dtd">
<svg version="1.0" xmlns="http://www.w3.org/2000/svg"
 width="64.000000pt" height="64.000000pt" viewBox="0 0 64.000000 64.000000"
 preserveAspectRatio="xMidYMid meet">

<g transform="translate(0.000000,64.000000) scale(0.100000,-0.100000)"
fill="#000000" stroke="none">
<path d="M217 594 c-4 -4 -7 -25 -7 -46 0 -42 26 -55 32 -15 3 20 9 22 81 25
77 3 77 3 77 -23 0 -16 6 -25 16 -25 12 0 14 9 12 43 l-3 42 -101 3 c-55 1
-103 0 -107 -4z"/>
<path d="M292 228 c-7 -7 -12 -23 -12 -36 0 -23 -2 -24 -47 -19 -27 4 -83 9
-125 13 l-78 7 0 -72 0 -71 290 0 290 0 0 71 0 72 -81 -7 c-44 -4 -100 -9
-125 -13 -42 -5 -44 -4 -44 19 0 28 -17 48 -40 48 -9 0 -21 -5 -28 -12z"/>
</g>
</svg>
