<svg id="Слой_1" data-name="Слой 1" xmlns="http://www.w3.org/2000/svg" viewBox="0 0 300 300"><defs><style>.cls-1{fill:#1d1d1b;}.cls-2,.cls-3{fill:#fff;}.cls-3{font-size:19.54px;font-family:MyriadPro-Regular, Myriad Pro;}.cls-4{fill:#575756;}</style></defs><circle class="cls-1" cx="150" cy="150" r="150"/><circle class="cls-2" cx="150" cy="150" r="125"/><text class="cls-3" transform="translate(257.72 78.55) rotate(59.62) scale(0.98 1)">P</text><text class="cls-3" transform="translate(262.76 87.12) rotate(63.98) scale(0.98 1)">R</text><text class="cls-3" transform="translate(267.17 96.18) rotate(68.18) scale(0.98 1)">S</text><text class="cls-3" transform="matrix(0.29, 0.94, -0.96, 0.29, 270.67, 104.69)">O</text><text class="cls-3" transform="matrix(0.2, 0.96, -0.98, 0.2, 274.45, 117.04)">N</text><text class="cls-3" transform="translate(276.9 129.12) rotate(83.59) scale(0.98 1)">A</text><text class="cls-3" transform="matrix(0.05, 0.98, -1, 0.05, 278.09, 140.61)"> </text><text class="cls-3" transform="translate(278.3 144.56) rotate(88.57) scale(0.98 1)"> </text><text class="cls-3" transform="matrix(-0.02, 0.98, -1, -0.02, 278.43, 148.5)"> </text><text class="cls-3" transform="matrix(-0.03, 0.98, -1, -0.03, 278.39, 152.51)"> </text><text class="cls-3" transform="matrix(-0.06, 0.98, -1, -0.06, 278.26, 156.46)"> </text><text class="cls-3" transform="matrix(-0.09, 0.98, -1, -0.09, 278.01, 160.43)"> </text><text class="cls-3" transform="matrix(-0.12, 0.97, -0.99, -0.12, 277.65, 164.37)"> </text><text class="cls-3" transform="translate(277.17 168.31) rotate(98.69) scale(0.98 1)"> </text><text class="cls-3" transform="translate(276.57 172.23) rotate(100.4) scale(0.98 1)"> </text><text class="cls-3" transform="translate(275.85 176.14) rotate(102.12) scale(0.98 1)"> </text><text class="cls-3" transform="translate(275.02 180.01) rotate(103.83) scale(0.98 1)"> </text><text class="cls-3" transform="matrix(-0.26, 0.94, -0.96, -0.27, 274.07, 183.88)"> </text><text class="cls-3" transform="matrix(-0.29, 0.94, -0.95, -0.3, 273.01, 187.68)"> </text><text class="cls-3" transform="translate(271.83 191.49) rotate(109.02) scale(0.98 1)"> </text><text class="cls-3" transform="translate(270.55 195.22) rotate(110.73) scale(0.98 1)"> </text><text class="cls-3" transform="translate(269.14 198.94) rotate(112.47) scale(0.98 1)"> </text><text class="cls-3" transform="translate(267.63 202.61) rotate(114.2) scale(0.98 1)"> </text><text class="cls-3" transform="translate(266 206.22) rotate(115.92) scale(0.98 1)"> </text><text class="cls-3" transform="matrix(-0.47, 0.86, -0.88, -0.48, 264.38, 209.75)">P</text><text class="cls-3" transform="translate(259.57 218.47) rotate(123.32) scale(0.98 1)">R</text><text class="cls-3" transform="matrix(-0.6, 0.78, -0.79, -0.61, 254.02, 226.9)">S</text><text class="cls-3" transform="translate(248.5 234.24) rotate(132.37) scale(0.98 1)">O</text><text class="cls-3" transform="translate(239.81 243.77) rotate(137.9) scale(0.98 1)">N</text><text class="cls-3" transform="translate(230.66 252.02) rotate(143.15) scale(0.98 1)">A</text><text class="cls-3" transform="matrix(-0.82, 0.54, -0.55, -0.83, 221.37, 258.86)"> </text><text class="cls-3" transform="translate(218.06 261.04) rotate(148.35) scale(0.98 1)"> </text><text class="cls-3" transform="translate(214.68 263.12) rotate(150.13) scale(0.98 1)"> </text><text class="cls-3" transform="matrix(-0.87, 0.46, -0.47, -0.88, 211.24, 265.1)"> </text><text class="cls-3" transform="translate(207.75 266.97) rotate(153.7) scale(0.98 1)"> </text><text class="cls-3" transform="translate(204.2 268.72) rotate(155.5) scale(0.98 1)"> </text><text class="cls-3" transform="matrix(-0.9, 0.38, -0.39, -0.92, 200.59, 270.37)"> </text><text class="cls-3" transform="translate(196.94 271.9) rotate(159.09) scale(0.98 1)"> </text><text class="cls-3" transform="translate(193.24 273.31) rotate(160.9) scale(0.98 1)"> </text><text class="cls-3" transform="matrix(-0.94, 0.29, -0.3, -0.95, 189.49, 274.62)"> </text><text class="cls-3" transform="translate(185.73 275.79) rotate(164.51) scale(0.98 1)"> </text><text class="cls-3" transform="translate(181.89 276.85) rotate(166.32) scale(0.98 1)"> </text><text class="cls-3" transform="translate(178.04 277.79) rotate(168.14) scale(0.98 1)"> </text><text class="cls-3" transform="matrix(-0.97, 0.17, -0.17, -0.98, 174.16, 278.61)"> </text><text class="cls-3" transform="translate(170.27 279.3) rotate(171.74) scale(0.98 1)"> </text><text class="cls-3" transform="translate(166.36 279.87) rotate(173.54) scale(0.98 1)"> </text><text class="cls-3" transform="matrix(-0.98, 0.08, -0.08, -1, 162.41, 280.32)"> </text><text class="cls-3" transform="translate(158.46 280.64) rotate(177.12) scale(0.98 1)"> </text><text class="cls-3" transform="matrix(-0.98, -0.02, 0.02, -1, 154.63, 280.99)">P</text><text class="cls-3" transform="translate(144.62 280.9) rotate(-175.28) scale(0.98 1)">R</text><text class="cls-3" transform="matrix(-0.97, -0.16, 0.16, -0.99, 134.59, 280.06)">S</text><text class="cls-3" transform="translate(125.52 278.7) rotate(-165.87) scale(0.98 1)">O</text><text class="cls-3" transform="translate(113.01 275.55) rotate(-160.12) scale(0.98 1)">N</text><text class="cls-3" transform="translate(101.44 271.37) rotate(-154.74) scale(0.98 1)">A</text><text class="cls-3" transform="translate(91.05 266.34) rotate(-151.26) scale(0.98 1)"> </text><text class="cls-3" transform="matrix(-0.85, -0.5, 0.51, -0.86, 87.59, 264.44)"> </text><text class="cls-3" transform="matrix(-0.83, -0.52, 0.53, -0.85, 84.15, 262.42)"> </text><text class="cls-3" transform="matrix(-0.81, -0.55, 0.56, -0.83, 80.82, 260.31)"> </text><text class="cls-3" transform="matrix(-0.8, -0.57, 0.59, -0.81, 77.52, 258.08)"> </text><text class="cls-3" transform="matrix(-0.78, -0.6, 0.61, -0.79, 74.31, 255.77)"> </text><text class="cls-3" transform="translate(71.17 253.35) rotate(-140.65) scale(0.98 1)"> </text><text class="cls-3" transform="matrix(-0.74, -0.64, 0.66, -0.75, 68.09, 250.83)"> </text><text class="cls-3" transform="translate(65.1 248.23) rotate(-137.15) scale(0.98 1)"> </text><text class="cls-3" transform="matrix(-0.7, -0.69, 0.7, -0.71, 62.2, 245.54)"> </text><text class="cls-3" transform="translate(59.38 242.76) rotate(-133.67) scale(0.98 1)"> </text><text class="cls-3" transform="translate(56.64 239.89) rotate(-131.93) scale(0.98 1)"> </text><text class="cls-3" transform="translate(53.99 236.94) rotate(-130.19) scale(0.98 1)"> </text><text class="cls-3" transform="translate(51.42 233.91) rotate(-128.46) scale(0.98 1)"> </text><text class="cls-3" transform="matrix(-0.59, -0.79, 0.8, -0.6, 48.96, 230.81)"> </text><text class="cls-3" transform="translate(46.58 227.62) rotate(-124.99) scale(0.98 1)"> </text><text class="cls-3" transform="translate(44.31 224.38) rotate(-123.26) scale(0.98 1)"> </text><text class="cls-3" transform="matrix(-0.51, -0.84, 0.85, -0.52, 42.13, 221.06)"> </text><text class="cls-3" transform="translate(40.02 217.79) rotate(-118.5) scale(0.98 1)">P</text><text class="cls-3" transform="matrix(-0.4, -0.9, 0.91, -0.41, 35.26, 209.05)">R</text><text class="cls-3" transform="translate(31.15 199.85) rotate(-109.94) scale(0.98 1)">S</text><text class="cls-3" transform="translate(27.93 191.24) rotate(-105.13) scale(0.98 1)">O</text><text class="cls-3" transform="translate(24.56 178.78) rotate(-99.67) scale(0.98 1)">N</text><text class="cls-3" transform="translate(22.5 166.62) rotate(-94.57) scale(0.98 1)">A</text><text class="cls-3" transform="matrix(-0.02, -0.98, 1, -0.02, 21.68, 155.09)"> </text><text class="cls-3" transform="translate(21.57 151.16) rotate(-89.09) scale(0.98 1)"> </text><text class="cls-3" transform="translate(21.62 147.15) rotate(-87.94) scale(0.98 1)"> </text><text class="cls-3" transform="matrix(0.06, -0.98, 1, 0.07, 21.76, 143.2)"> </text><text class="cls-3" transform="translate(22.02 139.23) rotate(-84.57) scale(0.98 1)"> </text><text class="cls-3" transform="translate(22.39 135.29) rotate(-82.87) scale(0.98 1)"> </text><text class="cls-3" transform="matrix(0.15, -0.97, 0.99, 0.15, 22.88, 131.36)"> </text><text class="cls-3" transform="translate(23.49 127.42) rotate(-79.44) scale(0.98 1)"> </text><text class="cls-3" transform="translate(24.21 123.54) rotate(-77.74) scale(0.98 1)"> </text><text class="cls-3" transform="translate(25.06 119.65) rotate(-76.01) scale(0.98 1)"> </text><text class="cls-3" transform="translate(26.01 115.8) rotate(-74.29) scale(0.98 1)"> </text><text class="cls-3" transform="translate(27.09 111.98) rotate(-72.56) scale(0.98 1)"> </text><text class="cls-3" transform="matrix(0.32, -0.93, 0.94, 0.33, 28.27, 108.21)"> </text><text class="cls-3" transform="translate(29.57 104.46) rotate(-69.12) scale(0.98 1)"> </text><text class="cls-3" transform="matrix(0.38, -0.91, 0.92, 0.38, 30.99, 100.74)"> </text><text class="cls-3" transform="translate(32.51 97.08) rotate(-65.65) scale(0.98 1)"> </text><text class="cls-3" transform="matrix(0.43, -0.88, 0.9, 0.44, 34.14, 93.47)"> </text><text class="cls-3" transform="translate(35.88 89.92) rotate(-62.21) scale(0.98 1)"> </text><text class="cls-3" transform="translate(37.63 86.41) rotate(-59.16) scale(0.98 1)">P</text><text class="cls-3" transform="translate(42.71 77.87) rotate(-54.8) scale(0.98 1)">R</text><text class="cls-3" transform="matrix(0.62, -0.76, 0.77, 0.63, 48.54, 69.63)">S</text><text class="cls-3" transform="matrix(0.68, -0.7, 0.72, 0.7, 54.3, 62.48)">O</text><text class="cls-3" transform="translate(63.29 53.25) rotate(-40.21) scale(0.98 1)">N</text><text class="cls-3" transform="translate(72.73 45.28) rotate(-34.93) scale(0.98 1)">A</text><text class="cls-3" transform="translate(82.23 38.78) rotate(-31.49) scale(0.98 1)"> </text><text class="cls-3" transform="translate(85.61 36.7) rotate(-29.71) scale(0.98 1)"> </text><text class="cls-3" transform="translate(89.06 34.73) rotate(-27.92) scale(0.98 1)"> </text><text class="cls-3" transform="translate(92.56 32.88) rotate(-26.14) scale(0.98 1)"> </text><text class="cls-3" transform="matrix(0.89, -0.4, 0.41, 0.91, 96.11, 31.13)"> </text><text class="cls-3" transform="matrix(0.91, -0.38, 0.38, 0.92, 99.73, 29.49)"> </text><text class="cls-3" transform="translate(103.38 27.98) rotate(-20.75) scale(0.98 1)"> </text><text class="cls-3" transform="matrix(0.93, -0.32, 0.32, 0.95, 107.09, 26.57)"> </text><text class="cls-3" transform="translate(110.82 25.29) rotate(-17.14) scale(0.98 1)"> </text><text class="cls-3" transform="matrix(0.95, -0.26, 0.26, 0.96, 114.61, 24.12)"> </text><text class="cls-3" transform="translate(118.45 23.06) rotate(-13.52) scale(0.98 1)"> </text><text class="cls-3" transform="translate(122.28 22.14) rotate(-11.72) scale(0.98 1)"> </text><text class="cls-3" transform="translate(126.16 21.33) rotate(-9.91) scale(0.98 1)"> </text><text class="cls-3" transform="translate(130.06 20.65) rotate(-8.11) scale(0.98 1)"> </text><text class="cls-3" transform="matrix(0.97, -0.11, 0.11, 0.99, 133.99, 20.09)"> </text><text class="cls-3" transform="translate(137.92 19.65) rotate(-4.52) scale(0.98 1)"> </text><text class="cls-3" transform="translate(141.88 19.34) rotate(-2.73) scale(0.98 1)"> </text><text class="cls-3" transform="matrix(0.98, -0.02, 0.02, 1, 145.85, 19.15)"> </text><text class="cls-3" transform="translate(149.72 19) rotate(2.15) scale(0.98 1)">P</text><text class="cls-3" transform="translate(159.68 19.36) rotate(6.67) scale(0.98 1)">R</text><text class="cls-3" transform="translate(169.67 20.53) rotate(11.05) scale(0.98 1)">S</text><text class="cls-3" transform="translate(178.69 22.2) rotate(16.09) scale(0.98 1)">O</text><text class="cls-3" transform="matrix(0.91, 0.36, -0.37, 0.93, 191.09, 25.78)">N</text><text class="cls-3" transform="translate(202.5 30.36) rotate(27.2) scale(0.98 1)">A</text><text class="cls-3" transform="matrix(0.84, 0.5, -0.51, 0.86, 212.71, 35.73)"> </text><text class="cls-3" transform="translate(216.14 37.76) rotate(32.45) scale(0.98 1)"> </text><text class="cls-3" transform="translate(219.47 39.87) rotate(34.21) scale(0.98 1)"> </text><text class="cls-3" transform="matrix(0.79, 0.58, -0.59, 0.81, 222.76, 42.11)"> </text><text class="cls-3" transform="translate(225.97 44.44) rotate(37.74) scale(0.98 1)"> </text><text class="cls-3" transform="translate(229.1 46.86) rotate(39.5) scale(0.98 1)"> </text><text class="cls-3" transform="matrix(0.74, 0.65, -0.66, 0.75, 232.15, 49.37)"> </text><text class="cls-3" transform="matrix(0.72, 0.67, -0.68, 0.73, 235.13, 51.98)"> </text><text class="cls-3" transform="translate(238.05 54.7) rotate(44.74) scale(0.98 1)"> </text><text class="cls-3" transform="translate(240.86 57.49) rotate(46.48) scale(0.98 1)"> </text><text class="cls-3" transform="translate(243.59 60.36) rotate(48.22) scale(0.98 1)"> </text><text class="cls-3" transform="matrix(0.63, 0.75, -0.77, 0.64, 246.24, 63.32)"> </text><text class="cls-3" transform="translate(248.79 66.36) rotate(51.69) scale(0.98 1)"> </text><text class="cls-3" transform="translate(251.24 69.46) rotate(53.42) scale(0.98 1)"> </text><text class="cls-3" transform="translate(253.61 72.64) rotate(55.15) scale(0.98 1)"> </text><text class="cls-3" transform="matrix(0.54, 0.82, -0.84, 0.55, 255.87, 75.89)"> </text><text class="cls-3" transform="translate(258.04 79.21) rotate(58.61) scale(0.98 1)"> </text><text class="cls-3" transform="translate(260.11 82.61) rotate(60.34) scale(0.98 1)"> </text><path class="cls-4" d="M150,35A115,115,0,0,0,35,150H150Z"/><path class="cls-1" d="M265,150h0A115,115,0,0,0,150,35h0V150Z"/><path class="cls-4" d="M150,150V265h0A115,115,0,0,0,265,150Z"/><path class="cls-1" d="M35,150A115,115,0,0,0,150,265V150Z"/></svg>